<?xml version="1.0" encoding="UTF-8"?>
<svg class="drawing-canvas mode-select" viewBox="590 243 230 229" role="img" aria-label="circuit diagram drawing canvas" xmlns="http://www.w3.org/2000/svg" width="230" height="229"><rect x="590" y="243" width="230" height="229" fill="white"/><g class="wire-layer"><g><path d="M 640 330 L 620 330 L 620 420" fill="none" stroke="currentColor" stroke-width="2.4" stroke-linecap="butt" stroke-linejoin="miter"/></g><g><path d="M 780 330 L 790 330 L 790 420 L 790 420" fill="none" stroke="currentColor" stroke-width="2.4" stroke-linecap="butt" stroke-linejoin="miter"/></g></g><g class="component-layer"><g transform="translate(670 420)"><g transform="rotate(0)" class="component"><g fill="none" stroke="currentColor" stroke-width="2.4" stroke-linecap="round" stroke-linejoin="round" vector-effect="non-scaling-stroke"><line x1="-50" y1="0" x2="-22" y2="0"/><line x1="22" y1="0" x2="50" y2="0"/><circle cx="0" cy="0" r="22"/><line x1="-15" y1="-15" x2="15" y2="15"/><line x1="-15" y1="15" x2="15" y2="-15"/></g></g></g><g transform="translate(710 330)"><g transform="rotate(0)" class="component"><g fill="none" stroke="currentColor" stroke-width="2.4" stroke-linecap="round" stroke-linejoin="round" vector-effect="non-scaling-stroke"><line x1="-70" y1="0" x2="-25" y2="0" stroke-linecap="butt"/><g><line x1="-25" y1="-24" x2="-25" y2="24" stroke-linecap="butt"/><line x1="-15" y1="-10" x2="-15" y2="10" stroke-width="4" stroke-linecap="butt"/></g><g><line x1="-5" y1="-24" x2="-5" y2="24" stroke-linecap="butt"/><line x1="5" y1="-10" x2="5" y2="10" stroke-width="4" stroke-linecap="butt"/></g><g><line x1="15" y1="-24" x2="15" y2="24" stroke-linecap="butt"/><line x1="25" y1="-10" x2="25" y2="10" stroke-width="4" stroke-linecap="butt"/></g><line x1="25" y1="0" x2="70" y2="0" stroke-linecap="butt"/></g></g><text x="0" y="-43.2" text-anchor="middle" dominant-baseline="middle" xml:space="preserve" class="component-label" style="font-family: Arial, sans-serif; font-weight: 400; font-style: normal; white-space: pre; font-size: 20px;">12V</text></g><g transform="translate(740 420)"><g transform="rotate(0)" class="component"><g fill="none" stroke="currentColor" stroke-width="2.4" stroke-linecap="round" stroke-linejoin="round" vector-effect="non-scaling-stroke"><line x1="-30" y1="0" x2="-18" y2="0"/><line x1="18" y1="0" x2="30" y2="0"/><circle cx="0" cy="0" r="18" fill="none"/><text x="0" y="5.75" text-anchor="middle" font-size="18" fill="currentColor" stroke="none" font-family="Arial, sans-serif" transform="rotate(0)">A</text></g></g></g><g transform="translate(780 420)"><g transform="rotate(0)" class="component"><g fill="none" stroke="currentColor" stroke-width="2.4" stroke-linecap="round" stroke-linejoin="round" vector-effect="non-scaling-stroke"><line x1="-10" y1="0" x2="10" y2="0" stroke-width="2.4" stroke-linecap="square"/></g></g></g></g></svg>